# xmcd
#
# Track frame offsets:
#   150
#   19446
#   39182
#
# Disc length: 1158 seconds
#
# Revision: 0
# Processed by: cddbd v1.5.2PL0 Copyright (c) Steve Scherf et al.
# Submitted via: GXTranscoder 2.0.1939
#
DISCID=1b048403
DTITLE=Jan Delay - Arsch
DYEAR=2007
DGENRE=Hip Hop
TTITLE0=Im Arsch
TTITLE1=Medley 2
TTITLE2=Roter Knopf
EXTD=
EXTT0=
EXTT1=
EXTT2=
PLAYORDER=
